<svg width="153" height="80" viewBox="0 0 153 80" fill="none" xmlns="http://www.w3.org/2000/svg">
<g id="Logo" clipPath="url(#clip0_3_2123)">
<g id="Artwork 3">
<g id="Artwork 3_2">
<g id="Artwork 3_3">
<path id="Vector" d="M152.67 0H113.274C113.166 0 113.057 0.0181468 112.953 0.0544403L0.217278 39.9456C0.0860059 39.9909 0 40.118 0 40.2541V79.6688C0 79.8503 0.149379 80 0.330444 80H39.5491C39.7755 80 40.0018 79.9592 40.2146 79.8866L152.783 40.0544C152.914 40.0091 153 39.882 153 39.7459V0.331178C153 0.149711 152.851 0 152.67 0Z" fill="#71DA80"/>
<g id="Group">
<path id="Vector_2" d="M87.2778 44.3009V22.0621C87.2778 21.8897 87.3819 21.749 87.554 21.749H99.3051C99.4771 21.749 99.6174 21.8897 99.6174 22.0621V25.7685C99.6174 25.9409 99.4771 26.0816 99.3051 26.0816H91.8407V30.7907H97.6483C97.8203 30.7907 97.9245 30.9313 97.9245 31.1037V34.8782C97.9245 35.0506 97.8203 35.1912 97.6483 35.1912H91.8407V40.2814H99.3051C99.4771 40.2814 99.6174 40.422 99.6174 40.5944V44.3009C99.6174 44.4733 99.4771 44.6139 99.3051 44.6139H87.554C87.3819 44.6139 87.2778 44.4733 87.2778 44.3009Z" fill="#0B344F"/>
<path id="Vector_3" d="M132.567 9.45473H136.541C136.713 9.45473 136.853 9.59537 136.853 9.76776V32.0066C136.853 32.179 136.713 32.3197 136.541 32.3197H132.703C132.562 32.3197 132.426 32.2516 132.39 32.1473L127.343 20.7511V32.0112C127.343 32.1835 127.203 32.3242 127.031 32.3242H123.093C122.921 32.3242 122.816 32.1835 122.816 32.0112V9.76776C122.816 9.59537 122.921 9.45473 123.093 9.45473H127.171C127.311 9.45473 127.379 9.55908 127.411 9.62713L132.25 20.8146V9.76323C132.25 9.59083 132.39 9.4502 132.562 9.4502L132.567 9.45473Z" fill="#0B344F"/>
<path id="Vector_4" d="M60.4352 48.6794L64.4005 57.3717C64.5046 57.5759 64.3643 57.7846 64.1606 57.7846H59.9373C59.8015 57.7846 59.7336 57.7165 59.6973 57.6122L55.9357 49.437H54.1839V57.4761C54.1839 57.6485 54.0481 57.7846 53.8761 57.7846H49.9289C49.7931 57.7846 49.689 57.6485 49.689 57.4761V35.2372C49.689 35.0648 49.7931 34.9287 49.9289 34.9287H57.0674C60.8788 34.9287 63.1783 37.0972 63.1783 41.1213V43.1038C63.1783 44.3061 62.9746 45.4448 62.5627 46.3022C62.0829 47.3003 61.3948 48.2394 60.4352 48.684V48.6794ZM58.6834 42.1466C58.6834 39.7376 57.7916 39.4972 55.1843 39.4972H54.1884V44.9276H55.1843C57.348 44.9276 58.6155 44.8913 58.6834 42.2101V42.1466Z" fill="#0B344F"/>
<path id="Vector_5" d="M27.1599 52.1636C27.3319 52.1636 27.4722 52.023 27.4722 51.8506V48.1441C27.4722 47.9717 27.3319 47.8311 27.1599 47.8311H14.1956C14.0236 47.8311 13.8833 47.9717 13.8833 48.1441V51.8506C13.8833 52.023 14.0236 52.1636 14.1956 52.1636H18.4688V66.368H14.1956C14.0236 66.368 13.8833 66.5086 13.8833 66.681V70.3875C13.8833 70.5599 14.0236 70.7005 14.1956 70.7005H27.1599C27.3319 70.7005 27.4722 70.5599 27.4722 70.3875V66.681C27.4722 66.5086 27.3319 66.368 27.1599 66.368H22.9954V52.1636H27.1599Z" fill="#0B344F"/>
</g>
</g>
</g>
</g>
</g>
<defs>
<clipPath id="clip0_3_2123">
<rect width="153" height="80" fill="white"/>
</clipPath>
</defs>
</svg>
